<svg width="46" height="65" viewBox="0 0 46 65" fill="none" xmlns="http://www.w3.org/2000/svg">
<path d="M20.5518 31.6602H15.1904L13.9863 35H12.2461L17.1328 22.2031H18.6094L23.5049 35H21.7734L20.5518 31.6602ZM15.7002 30.2715H20.0508L17.8711 24.2861L15.7002 30.2715ZM30.8438 35C30.75 34.8125 30.6738 34.4785 30.6152 33.998C29.8594 34.7832 28.957 35.1758 27.9082 35.1758C26.9707 35.1758 26.2002 34.9121 25.5967 34.3848C24.999 33.8516 24.7002 33.1777 24.7002 32.3633C24.7002 31.373 25.0752 30.6055 25.8252 30.0605C26.5811 29.5098 27.6416 29.2344 29.0068 29.2344H30.5889V28.4873C30.5889 27.9189 30.4189 27.4678 30.0791 27.1338C29.7393 26.7939 29.2383 26.624 28.5762 26.624C27.9961 26.624 27.5098 26.7705 27.1172 27.0635C26.7246 27.3564 26.5283 27.7109 26.5283 28.127H24.8936C24.8936 27.6523 25.0605 27.1953 25.3945 26.7559C25.7344 26.3105 26.1914 25.959 26.7656 25.7012C27.3457 25.4434 27.9814 25.3145 28.6729 25.3145C29.7686 25.3145 30.627 25.5898 31.248 26.1406C31.8691 26.6855 32.1914 27.4385 32.2148 28.3994V32.7764C32.2148 33.6494 32.3262 34.3438 32.5488 34.8594V35H30.8438ZM28.1455 33.7607C28.6553 33.7607 29.1387 33.6289 29.5957 33.3652C30.0527 33.1016 30.3838 32.7588 30.5889 32.3369V30.3857H29.3145C27.3223 30.3857 26.3262 30.9688 26.3262 32.1348C26.3262 32.6445 26.4961 33.043 26.8359 33.3301C27.1758 33.6172 27.6123 33.7607 28.1455 33.7607Z" fill="#252525"/>
<rect x="1" y="1" width="44" height="63" stroke="#515151" stroke-width="2"/>
<line x1="8" y1="57.5" x2="38" y2="57.5" stroke="#525252"/>
<line x1="8" y1="7.5" x2="38" y2="7.5" stroke="#525252"/>
</svg>
