<svg width="38" height="31" viewBox="0 0 38 31" fill="none" xmlns="http://www.w3.org/2000/svg">
<path d="M3.5 7C5.433 7 7 5.433 7 3.5C7 1.567 5.433 0 3.5 0C1.567 0 0 1.567 0 3.5C0 5.433 1.567 7 3.5 7Z" fill="white"/>
<path d="M3.5 19C5.433 19 7 17.433 7 15.5C7 13.567 5.433 12 3.5 12C1.567 12 0 13.567 0 15.5C0 17.433 1.567 19 3.5 19Z" fill="white"/>
<path d="M3.5 31C5.433 31 7 29.433 7 27.5C7 25.567 5.433 24 3.5 24C1.567 24 0 25.567 0 27.5C0 29.433 1.567 31 3.5 31Z" fill="white"/>
<path d="M36.5 2H14.5C13.6716 2 13 2.67157 13 3.5C13 4.32843 13.6716 5 14.5 5H36.5C37.3284 5 38 4.32843 38 3.5C38 2.67157 37.3284 2 36.5 2Z" fill="white"/>
<path d="M36.5 14H14.5C13.6716 14 13 14.6716 13 15.5C13 16.3284 13.6716 17 14.5 17H36.5C37.3284 17 38 16.3284 38 15.5C38 14.6716 37.3284 14 36.5 14Z" fill="white"/>
<path d="M36.5 26H14.5C13.6716 26 13 26.6716 13 27.5C13 28.3284 13.6716 29 14.5 29H36.5C37.3284 29 38 28.3284 38 27.5C38 26.6716 37.3284 26 36.5 26Z" fill="white"/>
</svg>
